<svg xmlns="http://www.w3.org/2000/svg" width="389.086" height="668.737" viewBox="0 0 389.086 668.737">
  <g id="Group_17280" data-name="Group 17280" transform="translate(18582.586 9794)">
    <g id="Group_17279" data-name="Group 17279">
      <g id="Subtraction_3078" data-name="Subtraction 3078" transform="translate(-18581.557 -9788)" fill="none">
        <path d="M372.919,662.737h0l-359.3-.076L0,647.492V16.439L16.438,0h353.8l17.317,17.317.5,628.464L372.92,662.737Z" stroke="none"/>
        <path d="M 372.4718017578125 661.736572265625 L 387.0563354492188 645.3995361328125 L 386.5578002929688 17.73156929016113 L 369.8267211914062 0.9999997615814209 L 16.8520679473877 0.9999997615814209 L 0.9991430640220642 16.85332489013672 L 0.9991430640220642 647.1085815429688 L 14.06326675415039 661.6610717773438 L 372.4718017578125 661.736572265625 M 372.9192199707031 662.7369995117188 L 372.9195556640625 662.7366943359375 L 13.6170597076416 662.6610107421875 L -0.0008569335914216936 647.4915771484375 L -0.0008569335914216936 16.43916702270508 L 16.43789291381836 -2.441405513309292e-07 L 370.2409057617188 -2.441405513309292e-07 L 387.5574645996094 17.31708335876465 L 388.056640625 645.7806396484375 L 372.9192199707031 662.7369995117188 Z" stroke="none" fill="#c5d1d8"/>
      </g>
      <path id="Union_164" data-name="Union 164" d="M76.086,78.426H73.844V23.866L57.459,7.514H0V5.272H5.418L11.641,0H53.519l6.093,5.626h-.054L76.087,22.14V78.425h0Z" transform="translate(-18269.586 -9794)" fill="#c5d1d8"/>
      <path id="Union_914" data-name="Union 914" d="M76.085,0H73.843V54.56L57.458,70.911H0v2.243H5.418l6.223,5.272H53.518L59.611,72.8h-.054L76.086,56.285V0h0Z" transform="translate(-18506.5 -9715.574) rotate(180)" fill="#c5d1d8"/>
    </g>
  </g>
</svg>
